<?xml version="1.0" encoding="utf-8"?>
<!-- Generator: Adobe Illustrator 17.0.0, SVG Export Plug-In . SVG Version: 6.00 Build 0)  -->
<!DOCTYPE svg PUBLIC "-//W3C//DTD SVG 1.1//EN" "http://www.w3.org/Graphics/SVG/1.1/DTD/svg11.dtd">
<svg version="1.1" id="Livello_1" xmlns="http://www.w3.org/2000/svg" xmlns:xlink="http://www.w3.org/1999/xlink" x="0px" y="0px"
	 width="168px" height="38px" viewBox="0 0 168 38" enable-background="new 0 0 168 38" xml:space="preserve">
<g>
	<polygon points="8,1.196 0,1.196 0,37.196 25,37.196 25,30.196 8,30.196 	"/>
	<path d="M55.888,0c-5.132,0-9.054,1.397-11.766,4.19c-3.638,3.297-5.456,8.233-5.456,14.81c0,6.447,1.818,11.384,5.456,14.81
		C46.834,36.603,50.756,38,55.888,38c5.131,0,9.053-1.397,11.765-4.19c3.621-3.426,5.432-8.363,5.432-14.81
		c0-6.577-1.811-11.513-5.432-14.81C64.941,1.397,61.019,0,55.888,0z M62.964,28.354c-1.746,2.192-4.104,3.288-7.076,3.288
		c-2.972,0-5.343-1.096-7.113-3.288c-1.77-2.193-2.655-5.311-2.655-9.354c0-4.044,0.885-7.162,2.655-9.354
		c1.77-2.192,4.141-3.289,7.113-3.289c2.972,0,5.33,1.101,7.076,3.301c1.745,2.201,2.618,5.314,2.618,9.342
		C65.583,23.043,64.71,26.161,62.964,28.354z"/>
	<path d="M105,24.196h8.044c-0.374,2-1.365,3.998-2.972,5.442c-1.608,1.445-3.67,2.049-6.187,2.049
		c-2.566,0-4.855-0.975-6.869-2.806c-2.014-1.832-3.021-4.981-3.021-9.39c0-4.376,0.929-7.668,2.789-9.848
		c1.859-2.18,4.234-3.278,7.125-3.278c1.51,0,2.882,0.212,4.117,0.747c2.208,0.974,3.596,3.084,4.165,5.084h7.381
		c-0.406-3-1.994-6.293-4.762-8.607c-2.768-2.314-6.435-3.444-10.998-3.444c-5.261,0-9.492,1.766-12.69,5.271
		c-3.2,3.505-4.799,8.17-4.799,13.979c0,5.746,1.583,10.276,4.75,13.587c3.037,3.295,6.934,4.943,11.692,4.943
		c2.891,0,5.326-0.605,7.308-1.817c1.153-0.695,2.452-1.794,3.897-3.491l0.755,4.579H120v-19h-15V24.196z"/>
	<path d="M162.568,4.189C159.857,1.397,155.935,0,150.803,0c-5.131,0-9.053,1.397-11.765,4.19c-3.638,3.297-5.456,8.233-5.456,14.81
		c0,6.447,1.819,11.384,5.456,14.81c2.712,2.793,6.634,4.19,11.765,4.19c5.132,0,9.054-1.397,11.765-4.19
		C166.19,30.384,168,25.447,168,19C168,12.423,166.19,7.486,162.568,4.189z M157.879,28.354c-1.745,2.192-4.104,3.288-7.076,3.288
		c-2.971,0-5.342-1.096-7.113-3.288c-1.77-2.193-2.655-5.311-2.655-9.354c0-4.044,0.885-7.162,2.655-9.354s4.141-3.289,7.113-3.289
		c2.972,0,5.331,1.101,7.076,3.301c1.746,2.201,2.619,5.314,2.619,9.342C160.498,23.043,159.625,26.161,157.879,28.354z"/>
</g>
</svg>
